<svg id="visual" viewBox="0 0 960 540" width="960" height="540" xmlns="http://www.w3.org/2000/svg" xmlns:xlink="http://www.w3.org/1999/xlink" version="1.1"><rect x="0" y="0" width="960" height="540" fill="#F6FAF7"></rect><path d="M0 353L22.8 356.2C45.7 359.3 91.3 365.7 137 363.8C182.7 362 228.3 352 274 349.3C319.7 346.7 365.3 351.3 411.2 350.5C457 349.7 503 343.3 548.8 339.2C594.7 335 640.3 333 686 338.3C731.7 343.7 777.3 356.3 823 362.2C868.7 368 914.3 367 937.2 366.5L960 366L960 541L937.2 541C914.3 541 868.7 541 823 541C777.3 541 731.7 541 686 541C640.3 541 594.7 541 548.8 541C503 541 457 541 411.2 541C365.3 541 319.7 541 274 541C228.3 541 182.7 541 137 541C91.3 541 45.7 541 22.8 541L0 541Z" fill="#e7eaa8"></path><path d="M0 361L22.8 367.8C45.7 374.7 91.3 388.3 137 388.7C182.7 389 228.3 376 274 370C319.7 364 365.3 365 411.2 365.2C457 365.3 503 364.7 548.8 363.2C594.7 361.7 640.3 359.3 686 361.7C731.7 364 777.3 371 823 378.5C868.7 386 914.3 394 937.2 398L960 402L960 541L937.2 541C914.3 541 868.7 541 823 541C777.3 541 731.7 541 686 541C640.3 541 594.7 541 548.8 541C503 541 457 541 411.2 541C365.3 541 319.7 541 274 541C228.3 541 182.7 541 137 541C91.3 541 45.7 541 22.8 541L0 541Z" fill="#dade9a"></path><path d="M0 409L22.8 415.2C45.7 421.3 91.3 433.7 137 434.2C182.7 434.7 228.3 423.3 274 421.7C319.7 420 365.3 428 411.2 435.7C457 443.3 503 450.7 548.8 452.5C594.7 454.3 640.3 450.7 686 451C731.7 451.3 777.3 455.7 823 451.7C868.7 447.7 914.3 435.3 937.2 429.2L960 423L960 541L937.2 541C914.3 541 868.7 541 823 541C777.3 541 731.7 541 686 541C640.3 541 594.7 541 548.8 541C503 541 457 541 411.2 541C365.3 541 319.7 541 274 541C228.3 541 182.7 541 137 541C91.3 541 45.7 541 22.8 541L0 541Z" fill="#cdd28d"></path><path d="M0 465L22.8 461C45.7 457 91.3 449 137 446.8C182.7 444.7 228.3 448.3 274 452.5C319.7 456.7 365.3 461.3 411.2 459.5C457 457.7 503 449.3 548.8 447C594.7 444.7 640.3 448.3 686 453C731.7 457.7 777.3 463.3 823 468.8C868.7 474.3 914.3 479.7 937.2 482.3L960 485L960 541L937.2 541C914.3 541 868.7 541 823 541C777.3 541 731.7 541 686 541C640.3 541 594.7 541 548.8 541C503 541 457 541 411.2 541C365.3 541 319.7 541 274 541C228.3 541 182.7 541 137 541C91.3 541 45.7 541 22.8 541L0 541Z" fill="#c0c67f"></path><path d="M0 479L22.8 482.8C45.7 486.7 91.3 494.3 137 493.7C182.7 493 228.3 484 274 484.5C319.7 485 365.3 495 411.2 499.3C457 503.7 503 502.3 548.8 499C594.7 495.7 640.3 490.3 686 487.7C731.7 485 777.3 485 823 486C868.7 487 914.3 489 937.2 490L960 491L960 541L937.2 541C914.3 541 868.7 541 823 541C777.3 541 731.7 541 686 541C640.3 541 594.7 541 548.8 541C503 541 457 541 411.2 541C365.3 541 319.7 541 274 541C228.3 541 182.7 541 137 541C91.3 541 45.7 541 22.8 541L0 541Z" fill="#b4bb72"></path></svg>